<?xml version="1.0" encoding="UTF-8" standalone="no"?>
<svg
   version="1.1"
   width="600"
   height="600"
   id="svg2"
   inkscape:version="1.2.2 (732a01da63, 2022-12-09)"
   viewBox="0 0 600 600"
   sodipodi:docname="logup.svg"
   xmlns:inkscape="http://www.inkscape.org/namespaces/inkscape"
   xmlns:sodipodi="http://sodipodi.sourceforge.net/DTD/sodipodi-0.dtd"
   xmlns:xlink="http://www.w3.org/1999/xlink"
   xmlns="http://www.w3.org/2000/svg"
   xmlns:svg="http://www.w3.org/2000/svg"
   xmlns:rdf="http://www.w3.org/1999/02/22-rdf-syntax-ns#"
   xmlns:cc="http://creativecommons.org/ns#"
   xmlns:dc="http://purl.org/dc/elements/1.1/">
  <metadata
     id="metadata150">
    <rdf:RDF>
      <cc:Work
         rdf:about="">
        <dc:format>image/svg+xml</dc:format>
        <dc:type
           rdf:resource="http://purl.org/dc/dcmitype/StillImage" />
      </cc:Work>
    </rdf:RDF>
  </metadata>
  <defs
     id="defs148" />
  <sodipodi:namedview
     pagecolor="#ffffff"
     bordercolor="#666666"
     borderopacity="1"
     objecttolerance="10"
     gridtolerance="10"
     guidetolerance="10"
     inkscape:pageopacity="0"
     inkscape:pageshadow="2"
     inkscape:window-width="1920"
     inkscape:window-height="1017"
     id="namedview146"
     showgrid="false"
     inkscape:zoom="0.29735805"
     inkscape:cx="-467.44993"
     inkscape:cy="423.73159"
     inkscape:window-x="1912"
     inkscape:window-y="-8"
     inkscape:window-maximized="1"
     inkscape:current-layer="svg2"
     inkscape:showpageshadow="2"
     inkscape:pagecheckerboard="0"
     inkscape:deskcolor="#d1d1d1" />
  <g
     id="g4"
     transform="matrix(2.3151105,0,0,2.3151105,-407.29875,-618.70124)">
    <path
       d="m 302.5931,345.6666 a 60.9041,60.9041 0 0 1 60.9042,60.9041 60.9041,60.9041 0 1 1 -60.9042,-60.9041 z"
       style="fill:none"
       id="path6"
       inkscape:connector-curvature="0" />
    <path
       d="m 302.6021,347.4208 a 59.1589,59.1589 0 0 1 59.1589,59.1589 59.1589,59.1589 0 1 1 -59.1589,-59.1589 z"
       style="fill:none"
       id="path8"
       inkscape:connector-curvature="0" />
    <path
       d="m 302.6328,335.4753 a 71.1351,71.1351 0 0 1 71.135,71.135 71.1351,71.1351 0 1 1 -71.135,-71.135 z"
       style="fill:none"
       id="path10"
       inkscape:connector-curvature="0" />
    <defs
       id="defs12">
      <linearGradient
         id="grad1">
        <stop
           offset="0.0000%"
           stop-color="#009b52"
           stop-opacity="1"
           id="stop15" />
        <stop
           offset="58.0000%"
           stop-color="#009b52"
           stop-opacity="1"
           id="stop17" />
        <stop
           offset="100.0000%"
           stop-color="#edf6ef"
           stop-opacity="1"
           id="stop19" />
      </linearGradient>
      <linearGradient
         xlink:href="#grad1"
         id="grad2"
         x1="302.07913"
         y1="221.61414"
         x2="302.07913"
         y2="436.52966"
         gradientTransform="scale(0.82925521,1.2059014)"
         gradientUnits="userSpaceOnUse" />
    </defs>
    <path
       d="m 250.6576,494.0986 c 3.1376,-6.2754 3.1376,-8.7855 11.6094,-8.4718 2.1963,0 7.8441,3.7653 6.9028,-1.255 -1.255,-5.3341 -7.2166,-13.492 -3.7652,-19.1398 8.7855,-14.7471 18.1985,-8.158 28.5529,-15.6884 5.334,-3.4514 12.2369,-13.1782 13.492,-18.5123 0.3137,-1.8826 9.413,-8.7855 11.9231,-11.2956 12.8645,-15.6884 -1.2551,-10.9819 -1.2551,-15.6884 0,-12.2369 -2.5101,1.5689 -6.5891,-2.8239 -2.8239,-2.8239 5.0203,-29.4941 3.1377,-38.2796 -1.2551,-4.3927 2.1964,-9.413 -0.6275,-13.1782 -1.2551,-2.5102 -5.3341,-4.079 -6.2754,-7.2167 -4.3927,-11.2956 7.5304,-7.2166 9.7268,-12.8644 2.5102,-6.5891 -9.413,-14.7471 -6.2753,-21.65 5.334,-11.9231 4.0789,-9.7268 -3.1377,-17.5709 -1.2551,-1.8826 -6.5891,-6.2754 -6.5891,-6.5892 -1.2551,-2.1963 4.079,-4.3927 0.6275,-9.0992 -3.2945,-4.7065 -5.0203,-6.2754 -5.4909,-7.5304 h 132.096 c 0,105.9403 -2.0178,213.9288 -122.0499,259.1669 -22.5912,-8.4718 -41.1091,-19.2918 -56.1699,-31.8425 z"
       style="fill:url(#grad2)"
       id="path22"
       inkscape:connector-curvature="0" />
    <defs
       id="defs24">
      <linearGradient
         id="grad3">
        <stop
           offset="0.0000%"
           stop-color="#007fb3"
           stop-opacity="1"
           id="stop27" />
        <stop
           offset="25.0000%"
           stop-color="#007fb3"
           stop-opacity="1"
           id="stop29" />
        <stop
           offset="100.0000%"
           stop-color="#ffffff"
           stop-opacity="1"
           id="stop31" />
      </linearGradient>
      <linearGradient
         xlink:href="#grad3"
         id="grad4"
         x1="235.01175"
         y1="209.88412"
         x2="235.01175"
         y2="388.41623"
         gradientUnits="userSpaceOnUse"
         gradientTransform="scale(0.78536278,1.2732969)" />
    </defs>
    <path
       d="m 250.6576,494.0986 c 3.1376,-6.2754 3.1376,-8.7855 11.6094,-8.4718 2.1963,0 7.8441,3.7653 6.9028,-1.255 -1.255,-5.3341 -7.2166,-13.492 -3.7652,-19.1398 8.7855,-14.7471 18.1985,-8.158 28.5529,-15.6884 5.334,-3.4514 12.2369,-13.1782 13.492,-18.5123 0.3137,-1.8826 9.413,-8.7855 11.9231,-11.2956 12.8645,-15.6884 -1.2551,-10.9819 -1.2551,-15.6884 0,-12.2369 -2.5101,1.5689 -6.5891,-2.8239 -2.8239,-2.8239 5.0203,-29.4941 3.1377,-38.2796 -1.2551,-4.3927 2.1964,-9.413 -0.6275,-13.1782 -1.2551,-2.5102 -5.3341,-4.079 -6.2754,-7.2167 -4.3927,-11.2956 7.5304,-7.2166 9.7268,-12.8644 2.5102,-6.5891 -9.413,-14.7471 -6.2753,-21.65 5.334,-11.9231 4.0789,-9.7268 -3.1377,-17.5709 -1.2551,-1.8826 -6.5891,-6.2754 -6.5891,-6.5892 -1.2551,-2.1963 4.079,-4.3927 0.6275,-9.0992 -3.2945,-4.7065 -5.0203,-6.2754 -5.4909,-7.5304 h -112.015 c 0,71.5389 -3.9221,168.3362 65.8912,227.3244 z"
       style="fill:url(#grad4)"
       id="path34"
       inkscape:connector-curvature="0" />
    <defs
       id="defs36">
      <linearGradient
         id="grad5">
        <stop
           offset="0.0000%"
           stop-color="#007fb3"
           stop-opacity="1"
           id="stop39" />
        <stop
           offset="25.0000%"
           stop-color="#007fb3"
           stop-opacity="1"
           id="stop41" />
        <stop
           offset="100.0000%"
           stop-color="#ffffff"
           stop-opacity="1"
           id="stop43" />
      </linearGradient>
      <linearGradient
         xlink:href="#grad5"
         id="grad6"
         x1="241.09357"
         y1="269.56281"
         x2="241.09357"
         y2="416.00293"
         gradientUnits="userSpaceOnUse"
         gradientTransform="scale(0.89867848,1.112745)" />
    </defs>
    <path
       d="m 265.8644,462.9052 c 1.5346,-3.3401 2.3471,-4.6942 7.6732,-4.5136 1.6249,0 5.7775,2.7082 5.0553,-0.9027 -0.9027,-3.7915 -5.2358,-9.7495 -2.8888,-13.9021 6.4997,-10.8327 13.541,-5.7775 21.1239,-11.3744 3.6109,-2.7082 8.6662,-2.3002 9.7495,-6.0916 0.1806,-1.2639 36.9451,-6.4997 38.9311,-8.3051 9.2079,-11.3744 -7.5776,-15.5739 -7.5776,-18.8237 0,-8.8468 -1.8054,0.9027 -4.8747,-2.3471 -2.1666,-1.986 3.6109,-21.3045 2.3471,-27.8041 -1.0833,-3.2498 1.6249,-6.8608 -0.5417,-9.7495 -0.9027,-1.6249 -3.972,-2.7082 -4.5136,-5.2358 -3.4304,-8.1246 5.5969,-5.4164 7.0413,-9.569 1.986,-4.6942 -6.8608,-10.4716 -4.5137,-15.7075 3.7915,-8.6662 3.0693,-7.0413 -2.3471,-12.6382 -0.9027,-1.4444 -4.6942,-4.6942 -4.6942,-4.8747 -0.9027,-1.8055 -6.0092,-5.8663 -8.5368,-9.2967 -1.4444,-2.2568 -12.9933,-1.8101 -17.8517,-1.7166 -45.9489,1.4443 -82.7803,39.1784 -82.7803,85.3982 0,34.2135 20.1309,63.7327 49.1988,77.4542 z"
       style="fill:url(#grad6)"
       id="path46"
       inkscape:connector-curvature="0" />
    <defs
       id="defs48">
      <linearGradient
         id="grad7">
        <stop
           offset="0.0000%"
           stop-color="#ffd400"
           stop-opacity="1"
           id="stop51" />
        <stop
           offset="61.0000%"
           stop-color="#ffcb00"
           stop-opacity="1"
           id="stop53" />
        <stop
           offset="100.0000%"
           stop-color="#ffffff"
           stop-opacity="1"
           id="stop55" />
      </linearGradient>
      <linearGradient
         xlink:href="#grad7"
         id="grad8"
         x1="169.97839"
         y1="567.91589"
         x2="169.97839"
         y2="597.35437"
         gradientTransform="scale(1.442831,0.69308187)"
         gradientUnits="userSpaceOnUse" />
    </defs>
    <path
       d="m 287.7249,414.0155 c -0.5133,-11.0357 -9.7525,-20.4033 -21.3015,-20.4033 -11.1641,0 -20.66,9.3676 -21.1733,20.4033 z"
       style="fill:url(#grad8)"
       id="path58"
       inkscape:connector-curvature="0" />
    <path
       d="m 216.6422,385.5444 c -0.5416,-45.8586 36.6509,-83.9538 81.2457,-85.3079 -1.4443,-1.986 -73.0308,29.429 -81.2457,85.3079 z"
       style="fill:#ffffff;fill-rule:evenodd"
       id="path60"
       inkscape:connector-curvature="0" />
    <g
       id="g62" />
    <path
       d="m 216.8228,385.5444 c 6.4996,-38.366 45.317,-74.5654 82.5095,-85.3982 -7.0413,0.5416 -74.3849,30.6025 -82.5095,85.3982 z"
       style="fill:#0094c0;fill-rule:evenodd"
       id="path64"
       inkscape:connector-curvature="0" />
    <defs
       id="defs66">
      <linearGradient
         id="grad9">
        <stop
           offset="0.0000%"
           stop-color="#007fb3"
           stop-opacity="1"
           id="stop69" />
        <stop
           offset="25.0000%"
           stop-color="#007fb3"
           stop-opacity="1"
           id="stop71" />
        <stop
           offset="100.0000%"
           stop-color="#ffffff"
           stop-opacity="1"
           id="stop73" />
      </linearGradient>
      <linearGradient
         xlink:href="#grad9"
         id="grad10"
         x1="144.02376"
         y1="636.36963"
         x2="144.02376"
         y2="711.72339"
         gradientUnits="userSpaceOnUse"
         gradientTransform="scale(1.5372603,0.65050793)" />
    </defs>
    <path
       d="M 337.2403,413.9635 H 221.402 c 7.4023,21.846 23.3807,39.8104 44.4143,49.0182 1.3278,-2.8902 28.9076,4.4511 44.9285,-6.0717 18.2729,-12.0017 25.2452,-41.8885 26.4955,-42.9465 z"
       style="fill:url(#grad10)"
       id="path76"
       inkscape:connector-curvature="0" />
    <g
       id="g78">
      <path
         d="m 201.2852,352.3392 -2.5477,6.744 8.0928,3.1472 c 1.6485,0.5995 2.9974,0.7493 4.1963,0.1499 1.7984,-0.7494 3.2971,-2.8475 4.496,-6.1446 2.248,-5.695 1.6485,-8.6923 -2.5477,-10.3408 l -8.0929,-2.9974 -2.5477,6.744 7.4934,2.9974 c 1.4986,0.4496 2.0981,0.8992 1.6485,2.0981 -0.4496,1.0491 -1.1989,1.0491 -2.6976,0.4496 z m 17.8342,-6.5942 3.5968,-5.9947 -3.8965,-2.248 c -0.2997,-0.1499 -0.7493,-0.5995 -1.9483,-1.0491 0.7493,0 1.4987,0 2.248,-0.1498 l 5.9947,-0.8993 3.1472,-5.545 -12.2891,-7.0438 -3.4469,5.9947 3.1472,1.7984 c 0.5994,0.4496 1.1989,0.7493 2.0981,1.1989 -1.0491,0 -1.7984,0 -2.5477,0.1499 l -4.6459,0.2997 -3.7467,6.2945 z m 11.2401,-17.6844 4.9456,-5.3952 -10.4907,-9.7413 -4.9456,5.3952 z m 8.8421,-9.1419 7.6433,-6.8939 -6.1446,-13.6379 -5.5451,4.9456 3.1472,5.8449 c 0.4496,0.8992 0.8992,1.6485 1.4987,2.5477 -0.7493,-0.5995 -1.6485,-1.1989 -2.3979,-1.7984 l -5.5451,-3.5968 -5.6949,5.0955 z m 11.9894,-10.6405 14.2374,-6.8939 -1.6485,-3.447 -7.7931,3.8966 -0.5995,-1.199 7.7931,-3.8965 -1.3488,-2.8475 -7.943,3.8966 -0.4496,-1.199 7.7931,-3.8965 -1.9482,-4.0464 -14.3873,6.8938 z m 16.3356,-8.3926 7.0437,-1.9483 -0.5994,-2.248 c -0.1499,-0.7493 -0.4496,-1.3488 -0.5995,-2.0981 0.4496,0.5994 0.8992,0.8992 1.0491,1.049 l 3.297,2.5478 8.0929,-2.248 -6.2945,-4.3462 c 2.6977,-1.049 3.8966,-2.8475 3.1473,-5.3952 -0.5995,-2.5477 -2.6977,-3.4469 -5.695,-2.5477 l -13.0385,3.4469 z m 5.2453,-8.992 -0.8992,-2.8475 1.4987,-0.2998 c 1.6485,-0.4496 2.3979,-0.4496 2.6976,0.4496 0.2997,1.199 -0.4496,1.7985 -2.0981,2.2481 z m 29.374,-11.2401 c -2.8475,-0.2997 -5.0955,-0.4496 -7.0438,-0.2997 -6.1445,0.2997 -8.992,2.248 -8.6923,5.9947 0,2.6976 1.6486,3.8965 4.9457,4.0464 1.1989,0.1499 2.3978,-0.1499 3.4469,0 0.5995,-0.1499 0.8992,0.1499 0.8992,0.5995 0.1499,0.4496 -0.4496,0.5994 -1.3488,0.5994 -1.9483,0 -4.3461,0 -7.1936,-0.2997 l 0.1498,4.0464 c 2.6977,0.4496 5.2454,0.4496 7.6433,0.2997 5.6949,-0.2997 8.3925,-2.3978 8.2427,-5.8448 -0.1499,-2.8475 -1.9483,-3.8965 -5.9947,-3.7467 -2.248,0.1499 -3.2971,0.2998 -3.2971,-0.5994 0,-0.4496 0.8992,-0.5995 2.6976,-0.5995 1.6486,-0.1499 3.5968,0 5.695,0 z"
         style="fill:#ffd400;fill-rule:evenodd"
         id="path80"
         inkscape:connector-curvature="0" />
      <path
         d="m 305.412,293.948 7.3435,0.2997 0.7493,-14.2374 -7.3435,-0.2997 z m 9.8913,0.2997 9.2917,2.3979 c 3.447,0.8992 5.9947,0.8992 8.2427,-0.7494 1.3488,-0.8992 2.248,-2.3979 2.6976,-4.1963 1.199,-4.1962 -0.8992,-7.0437 -6.1445,-8.5424 L 318.9001,280.31 Z m 8.0928,-2.3979 1.3488,-4.9456 c 0.2997,0.1499 0.4496,0.2997 0.5995,0.2997 2.5477,0.5995 3.4469,1.4987 2.9973,3.2971 -0.4496,1.4987 -1.9483,2.0981 -4.3461,1.4987 -0.1499,-0.1499 -0.4496,-0.1499 -0.5995,-0.1499 z m 10.3408,7.4934 6.7441,3.2971 1.3488,-1.3489 4.0464,1.9483 -0.2998,1.7984 6.5942,3.1472 2.248,-14.687 -10.191,-4.9456 z m 10.4907,-1.3488 2.0982,-2.0982 c 0.4496,-0.5994 1.0491,-1.1989 1.4987,-1.9482 -0.1499,0.8992 -0.2998,1.6485 -0.4496,2.3978 l -0.4496,2.8475 z m 8.9921,10.7904 7.3435,6.4443 c 2.6976,2.5478 4.7957,3.7467 7.6432,3.1472 1.6485,-0.1498 2.9974,-1.0491 4.3462,-2.3979 2.9973,-3.297 2.3978,-6.8939 -1.4987,-10.4907 l -8.2427,-7.1936 z m 8.5424,1.7984 3.2971,-3.8965 c 0.1499,0.1498 0.4496,0.4496 0.4496,0.5994 1.9483,1.6486 2.248,2.8475 1.1989,4.1963 -1.1989,1.199 -2.6976,1.0491 -4.6459,-0.5994 -0.1498,-0.1499 -0.2997,-0.2998 -0.2997,-0.2998 z"
         style="fill:#ffd400;fill-rule:evenodd"
         id="path82"
         inkscape:connector-curvature="0" />
    </g>
    <path
       d="m 273.3344,488.4182 9.4417,1.7984 c 3.5968,0.5995 5.9947,0.4496 8.2427,-1.3488 1.1989,-0.8992 2.0981,-2.5477 2.3979,-4.3461 0.8992,-4.3462 -1.4987,-7.0438 -6.5942,-8.0929 l -10.7904,-2.0981 z m 7.943,-2.9973 0.8992,-4.9457 c 0.2997,0.1499 0.5995,0.1499 0.7493,0.1499 2.5478,0.4496 3.447,1.3488 3.1473,3.1472 -0.2998,1.4987 -1.7984,2.248 -4.3462,1.7984 -0.1499,0 -0.2997,-0.1498 -0.4496,-0.1498 z m 14.687,6.5941 15.8859,-0.5994 -0.1498,-3.7467 -8.8422,0.2997 v -1.1989 l 8.8422,-0.4496 -0.1499,-3.1472 -8.6923,0.2997 -0.1499,-1.3488 8.8422,-0.2997 -0.2997,-4.6459 -15.886,0.5994 z m 20.0822,-1.1989 13.1883,-2.3979 -1.049,-5.0955 -5.8449,1.199 -1.7984,-8.9921 -7.1936,1.3488 z m 23.0796,-5.695 6.5941,-2.8474 -1.1989,-2.8475 3.5968,-1.6486 c 4.1963,-1.7984 5.695,-4.9456 4.1963,-8.3925 -1.3488,-3.1472 -4.0464,-3.8966 -7.7931,-2.0982 l -11.24,4.9456 z m 3.7467,-9.2917 -1.199,-2.6977 1.3488,-0.5994 c 1.6486,-0.7494 2.5478,-0.8992 2.9974,0.1498 0.4496,1.199 -0.2998,1.7985 -1.7984,2.5478 z m 13.7878,1.1989 5.9947,-4.3462 -0.4497,-1.7984 3.5969,-2.5477 1.4986,1.1989 5.9947,-4.3461 -11.8395,-8.9921 -9.1419,6.2945 z m 3.8965,-9.8912 -0.8992,-2.8475 c -0.2997,-0.5995 -0.5995,-1.3488 -0.8992,-2.248 0.5995,0.5994 1.1989,1.1989 1.7984,1.6485 l 2.248,1.7984 z m 25.1777,-16.1857 -3.4469,-3.447 c -1.0491,1.6486 -2.248,3.1473 -3.447,4.3462 -1.4987,1.6485 -2.8475,1.9483 -3.7467,1.0491 -1.1989,-1.0491 -0.7493,-2.3979 1.0491,-4.3462 0.8992,-0.8992 2.0981,-1.9483 3.8966,-3.1472 l -4.0465,-3.8965 c -2.0981,1.6485 -3.8965,2.9973 -5.2453,4.3461 -4.496,4.7958 -4.9456,8.6923 -1.199,12.1393 3.5969,3.5968 7.6433,3.1472 12.1393,-1.6486 1.3488,-1.3488 2.6976,-3.1472 4.0464,-5.3952 z m 2.0982,-3.1472 4.3461,-5.9947 -11.5398,-8.3926 -4.3461,5.9947 z m 7.0437,-9.5915 2.8475,-6.5942 -3.2971,-1.4987 3.447,-7.6432 -3.8966,-1.7984 -3.4469,7.6432 -1.199,-0.4496 3.447,-7.6432 -4.6459,-2.0981 -6.4443,14.3872 z m 7.7931,-18.134 2.0982,-7.0437 -13.638,-4.0465 -2.0981,6.8939 z m 5.3952,-26.8262 -4.7957,-0.8992 c 0.1499,1.9483 0,3.7467 -0.2997,5.5451 -0.4496,2.248 -1.3489,3.1472 -2.6977,2.8474 -1.3488,-0.1498 -1.7984,-1.6485 -1.3488,-4.0464 0.1499,-1.3488 0.5995,-2.8474 1.3488,-4.7957 l -5.545,-1.0491 c -0.7494,2.5477 -1.4987,4.6459 -1.7985,6.5942 -1.049,6.4443 0.7494,9.8912 5.695,10.7904 5.0955,0.8992 7.943,-1.7984 9.1419,-8.0928 0.4496,-2.0982 0.4496,-4.3462 0.2997,-6.8939 z m 0.5995,-13.3382 c 0,-6.5942 -2.6976,-9.7414 -7.6432,-9.5915 -5.2454,0 -7.4934,3.2971 -7.3435,9.8912 0,6.4443 2.5477,9.5915 7.6432,9.4417 5.0955,0 7.4934,-3.1472 7.3435,-9.7414 z m -4.3461,0.1499 c 0,1.3488 -1.0491,2.248 -2.8475,2.248 -1.9483,0 -2.9974,-0.5995 -2.9974,-2.248 0,-1.4987 1.0491,-2.2481 2.9974,-2.3979 1.7984,0 2.8475,0.8992 2.8475,2.3979 z"
       style="fill:#ffd400;fill-rule:evenodd"
       id="path84"
       inkscape:connector-curvature="0" />
    <g
       id="g86">
      <path
         d="m 250.2787,351.8379 h 16.1648 l -2.9073,-2.9072 z"
         style="fill:#009b52;fill-rule:evenodd"
         id="path88"
         inkscape:connector-curvature="0" />
      <path
         d="m 266.4428,335.6739 v 16.1647 l 2.9072,-2.9072 z"
         style="fill:#009b52;fill-rule:evenodd"
         id="path90"
         inkscape:connector-curvature="0" />
      <path
         d="m 282.6069,351.8379 h -16.1648 l 2.9073,2.9073 z"
         style="fill:#009b52;fill-rule:evenodd"
         id="path92"
         inkscape:connector-curvature="0" />
      <path
         d="m 266.4428,368.1273 v -16.1647 l -2.9073,2.9072 z"
         style="fill:#009b52;fill-rule:evenodd"
         id="path94"
         inkscape:connector-curvature="0" />
      <path
         d="m 250.2787,351.8379 h 16.1648 l -2.9073,2.9073 z"
         style="fill:#ffffff;fill-rule:evenodd"
         id="path96"
         inkscape:connector-curvature="0" />
      <path
         d="m 266.4428,335.6739 v 16.1647 l -2.9073,-2.9072 z"
         style="fill:#ffffff;fill-rule:evenodd"
         id="path98"
         inkscape:connector-curvature="0" />
      <path
         d="m 282.6069,351.8379 h -16.1648 l 2.9073,-2.9072 z"
         style="fill:#ffffff;fill-rule:evenodd"
         id="path100"
         inkscape:connector-curvature="0" />
      <path
         d="m 266.4428,368.1273 v -16.1647 l 2.9072,2.9072 z"
         style="fill:#ffffff;fill-rule:evenodd"
         id="path102"
         inkscape:connector-curvature="0" />
      <path
         d="m 254.9149,363.3658 11.4302,-11.4302 h -4.1115 z"
         style="fill:#009b52;fill-rule:evenodd"
         id="path104"
         inkscape:connector-curvature="0" />
      <path
         d="m 255.0402,340.4354 11.4302,11.4302 v -4.1115 z"
         style="fill:#009b52;fill-rule:evenodd"
         id="path106"
         inkscape:connector-curvature="0" />
      <path
         d="m 277.8453,340.4354 -11.4302,11.4302 h 4.1115 z"
         style="fill:#009b52;fill-rule:evenodd"
         id="path108"
         inkscape:connector-curvature="0" />
      <path
         d="m 277.8453,363.3658 -11.4302,-11.4302 v 4.1115 z"
         style="fill:#009b52;fill-rule:evenodd"
         id="path110"
         inkscape:connector-curvature="0" />
      <path
         d="m 254.9149,363.3658 11.4302,-11.4302 v 4.1115 z"
         style="fill:#ffffff;fill-rule:evenodd"
         id="path112"
         inkscape:connector-curvature="0" />
      <path
         d="m 255.0402,340.4354 11.4302,11.4302 h -4.1115 z"
         style="fill:#ffffff;fill-rule:evenodd"
         id="path114"
         inkscape:connector-curvature="0" />
      <path
         d="m 277.8453,340.4354 -11.4302,11.4302 v -4.1115 z"
         style="fill:#ffffff;fill-rule:evenodd"
         id="path116"
         inkscape:connector-curvature="0" />
      <path
         d="m 277.8453,363.3658 -11.4302,-11.4302 h 4.1115 z"
         style="fill:#ffffff;fill-rule:evenodd"
         id="path118"
         inkscape:connector-curvature="0" />
    </g>
    <defs
       id="defs120">
      <linearGradient
         id="grad11">
        <stop
           offset="0%"
           stop-color="#28af73"
           stop-opacity="1"
           id="stop123" />
        <stop
           offset="100%"
           stop-color="#ffffff"
           stop-opacity="1"
           id="stop125" />
      </linearGradient>
      <linearGradient
         xlink:href="#grad11"
         id="grad12"
         x1="315.11691"
         y1="292.70682"
         x2="315.11691"
         y2="375.36557"
         gradientTransform="scale(0.97360585,1.0271097)"
         gradientUnits="userSpaceOnUse" />
    </defs>
    <path
       d="m 314.2043,300.642 c 41.2421,6.08 73.0724,41.7665 73.0724,84.6524 0,0.0828 -0.003,0.1647 -0.003,0.2472 h -74.7354 c 1.4227,-8.4356 3.117,-17.9833 2.128,-22.5978 -1.2552,-4.3929 2.1963,-9.413 -0.6276,-13.1783 -1.2549,-2.5101 -5.334,-4.0788 -6.2754,-7.2164 -4.3925,-11.2958 7.5306,-7.2168 9.7269,-12.8645 2.51,-6.5891 -9.4131,-14.7472 -6.2754,-21.6502 1.5449,-3.4529 2.535,-5.7209 2.9897,-7.3924 z"
       style="fill:url(#grad12)"
       id="path128"
       inkscape:connector-curvature="0" />
    <defs
       id="defs130">
      <linearGradient
         id="grad13">
        <stop
           offset="0%"
           stop-color="#28af73"
           stop-opacity="1"
           id="stop133" />
        <stop
           offset="100%"
           stop-color="#28af73"
           stop-opacity="1"
           id="stop135" />
      </linearGradient>
      <linearGradient
         xlink:href="#grad13"
         id="grad14"
         x1="224.22417"
         y1="458.45261"
         x2="224.22417"
         y2="559.91107"
         gradientUnits="userSpaceOnUse"
         gradientTransform="scale(1.1891132,0.84096284)" />
    </defs>
    <path
       d="m 387.2735,385.5416 c -0.1346,47.0171 -38.5194,85.3228 -85.5669,85.3228 -12.4877,0 -24.3646,-2.7 -35.0787,-7.5441 8.4351,-12.2559 17.4541,-6.5943 27.3297,-13.7767 5.3339,-3.4514 12.2369,-13.1782 13.4918,-18.5122 0.3137,-1.8828 9.413,-8.7854 11.9233,-11.2958 12.8645,-15.6883 -1.2552,-10.9817 -1.2552,-15.6883 0,-12.2369 -2.51,1.569 -6.5891,-2.8239 -1.3405,-1.3405 -0.2761,-8.0572 1.0097,-15.6818 z"
       style="fill:url(#grad14)"
       id="path138"
       inkscape:connector-curvature="0" />
    <path
       d="m 301.9042,471.033 c 37.2827,-7.4024 74.4752,-46.7614 85.4885,-85.4886 0.2708,47.4836 -38.0952,85.7594 -85.4885,85.4886 z"
       style="fill:#daeddf;fill-rule:evenodd"
       id="path140"
       inkscape:connector-curvature="0" />
    <g
       id="g142" />
    <path
       d="m 302.0396,470.9939 c 36.7603,-7.6881 73.8195,-46.8268 85.3243,-85.3961 -11.7355,48.928 -54.3606,81.6046 -85.3243,85.3961 z"
       style="fill:#28af73;fill-rule:evenodd"
       id="path144"
       inkscape:connector-curvature="0" />
  </g>
</svg>
